# xmcd
#
# Track frame offsets: 
#        150
#        11655
#        23658
#        36142
#        47329
#        59576
#        71328
#        83306
#        94883
#        107839
#        118510
#        128722
#        138485
#        150671
#        160565
#        171143
#        181205
#        193028
#        204222
#        214177
#        224157
#        234190
#        246299
#        257500
#
# Disc length: 3574 seconds
#
# Revision: 1
# Processed by: cddbd v1.5.2PL0 Copyright (c) Steve Scherf et al.
# Submitted via: ExactAudioCopy v0.99pb4
#
DISCID=3e0df418
DTITLE=Reno and Smiley And The Tennessee Cut-Ups - The Talk Of The Town
DYEAR=1999
DGENRE=Bluegrass
TTITLE0=I'm Using My Bible As A Road Map
TTITLE1=Maybe You Will Change Your Mind
TTITLE2=Crazy Finger Blues
TTITLE3=There's Another Baby Waiting For Me Down The Line
TTITLE4=I'm The Talk Of The Town
TTITLE5=Choking The Strings
TTITLE6=Since I've Used My Bible As A Road Map
TTITLE7=Tally Ho
TTITLE8=Someone Will Love Me In Heaven
TTITLE9=Charlotte Breakdown
TTITLE10=Barefoot Nellie
TTITLE11=I'm The Biggest Liar In Town
TTITLE12=Double Banjo Blues
TTITLE13=Get Behind Me Satan
TTITLE14=Home Sweet Home
TTITLE15=Green Mountain Hop
TTITLE16=I Know You're Married
TTITLE17=Country Boy Rock And Roll
TTITLE18=Never Get To Hold You In My Arms Anymore
TTITLE19=No Longer A Sweetheart Of Mine
TTITLE20=I Wouldn't Change You If I Could
TTITLE21=Under Your Spell Again
TTITLE22=I'm Blue And Lonesome
TTITLE23=Freight Train Boogie
EXTD=
EXTT0=
EXTT1=
EXTT2=
EXTT3=
EXTT4=
EXTT5=
EXTT6=
EXTT7=
EXTT8=
EXTT9=
EXTT10=
EXTT11=
EXTT12=
EXTT13=
EXTT14=
EXTT15=
EXTT16=
EXTT17=
EXTT18=
EXTT19=
EXTT20=
EXTT21=
EXTT22=
EXTT23=
PLAYORDER=
